# xmcd CD database file
#
# Track frame offsets:
#	150
#	12145
#	31375
#	46365
#	70245
#	91592
#	108887
#	134635
#	153705
#	169430
#	202542
#	234232
#	247515
#	278692
#	299425
#
# Disc length: 4542 seconds
#
# Revision: 2
# Processed by: cddbd v1.5.2PL0 Copyright (c) Steve Scherf et al.
# Submitted via: CDex 1.78
#
DISCID=bf11bc0f
DTITLE=Various Artist - American Folk Blues Festival '81
DYEAR=2002
DGENRE=Blues
TTITLE0=Bowling Green John, Harmonica Phil Wiggins - Bowling Green Bag
TTITLE1=Bowling Green John, Harmonica Phil Wiggins - Bye Bye Baby
TTITLE2=Bowling Green John, Harmonica Phil Wiggins - Last Fair Deal
TTITLE3=Sunnyland Slim, Lurrie Bell, Bob Stroger,Odie Payne - One Room Country Shack
TTITLE4=Sunnyland Slim, Lurrie Bell, Bob Stroger,Odie Payne - Tin Pan Alley
TTITLE5=Sunnyland Slim, Lurrie Bell, Bob Stroger,Odie Payne - Dust My Broom
TTITLE6=Louisiana Red, Hubert Sumlin - Woodchopping Blues
TTITLE7=Hubert Sumlin, Louisiana Red, Lurrie Bell, Bob Stroger, Odie Payne  - I Love
TTITLE8=Hubert Sumlin, Louisiana Red, Lurrie Bell, Bob Stroger, Odie Payne - Everything I Do Gonna Be Funky
TTITLE9=Carey Bell's Blues Harp Band - I Need You So Bad
TTITLE10=Carey Bell's Blues Harp Band - Man And The Blues
TTITLE11=Margie Evans, Sunnyland Slim and Carey Bell's Blues Harp Band - 29 Ways
TTITLE12=Margie Evans, Sunnyland Slim and Carey Bell's Blues Harp Band - Trouble Trouble
TTITLE13=Margie Evans, Sunnyland Slim and Carey Bell's Blues Harp Band - 29 Ways Hound Dog
TTITLE14=Margie Evans, Sunnyland Slim and Carey Bell's Blues Harp Band, Hubert Sumlin, Louisiana Red, Lurrie Bell, Bob Stroger, Odie Payyne, Bowling Green John, Harmonica Phil Wiggins - Next Time I See You
EXTD=YEAR: 2002
EXTT0=
EXTT1=
EXTT2=
EXTT3=
EXTT4=
EXTT5=
EXTT6=
EXTT7=
EXTT8=
EXTT9=
EXTT10=
EXTT11=
EXTT12=
EXTT13=
EXTT14=
PLAYORDER=
